<?xml version="1.0" standalone="no"?>
<!DOCTYPE svg PUBLIC "-//W3C//DTD SVG 20010904//EN" "http://www.w3.org/TR/2001/REC-SVG-20010904/DTD/svg10.dtd">
<!-- Created using Karbon, part of Calligra: http://www.calligra.org/karbon -->
<svg xmlns="http://www.w3.org/2000/svg" xmlns:xlink="http://www.w3.org/1999/xlink" width="12.8pt" height="12.8pt">
<defs/>
<g id="layer9"/><g id="layer10"/><g id="layer11"/><g id="layer13"/><g id="layer14"/><g id="layer15"/><g id="g71291"/><g id="g4953"/><g id="layer12">
  <path id="path26772" transform="translate(11.5938, 5)" fill="#182329" d="M4.40625 0L4.40625 1C4.40625 1.25689 4.27642 1.52846 4.09375 1.71875L2.8125 3L4.09375 4.28125C4.27642 4.47154 4.40625 4.74311 4.40625 5L4.40625 6L3.40625 6C3.0968 6 2.85393 5.9097 2.65625 5.71875L0 3L2.65625 0.28125C2.85393 0.0903 3.0968 0 3.40625 0Z"/>
  <path id="rect26776" transform="translate(1, 1)" fill="#182329" d="M0 0L0 14L10 14L10 0ZM7 2L8 2L8 12L2 12L7 9ZM4 4L6 4L6 5L4 5Z"/>
 </g>
</svg>
