<?xml version="1.0" standalone="no"?>
<!DOCTYPE svg PUBLIC "-//W3C//DTD SVG 20010904//EN" "http://www.w3.org/TR/2001/REC-SVG-20010904/DTD/svg10.dtd">
<!-- Created using Karbon, part of Calligra: http://www.calligra.org/karbon -->
<svg xmlns="http://www.w3.org/2000/svg" xmlns:xlink="http://www.w3.org/1999/xlink" width="12.8pt" height="12.8pt">
<defs/>
<g id="layer9"/><g id="layer10"/><g id="layer11"/><g id="layer12">
  <path id="rect3845-5-8" transform="translate(1.27095, 5.87378)" fill="#182329" d="M0.489051 0C0.222887 0 0 0.222869 0 0.489097L0 9.63722C0 9.91201 0.21416 10.1262 0.489051 10.1262L13.2044 10.1262C13.4792 10.1262 13.6934 9.9121 13.6934 9.63722L14.7291 5.11181C14.7291 4.84567 14.5062 4.62281 14.24 4.62281L3.56719 4.62281L2.7617 7.82481C2.7617 8.07981 2.55641 8.28509 2.30141 8.28509C2.04642 8.28509 1.84113 8.07981 1.84113 7.82481L1.84113 3.22511C1.84113 2.97011 2.04642 2.76483 2.30141 2.76483L2.73054 2.76483L2.73054 0Z"/>
  <path id="path1234-3" transform="translate(5.67573, 3.40997)" fill="#182329" d="M0.657966 0.000607251C0.286814 0.0714532 -0.00654443 0.432484 0.000111038 0.810275L0.000111038 6.47795L1.61945 6.47795L1.61945 1.61994L4.85812 1.61994L4.85812 4.04895L7.28712 4.04895L7.28712 6.47795L8.90643 6.47795L8.90643 3.69472C8.91129 3.48088 8.8274 3.2664 8.67875 3.11273L5.7943 0.228326C5.64064 0.0795903 5.42615 -0.00434792 5.21235 0.000607251L0.809781 0.000607251C0.784517 -0.000202417 0.759175 -0.000202417 0.733913 0.000607251C0.708651 -0.000202417 0.683309 -0.000202417 0.658047 0.000607251Z"/>
 </g><g id="layer13"/><g id="layer14"/><g id="layer15"/><g id="g4953"/>
</svg>
